<?xml version="1.0" encoding="UTF-8"?>
<svg id="Capa_1" data-name="Capa 1" xmlns="http://www.w3.org/2000/svg" version="1.1" viewBox="0 0 800 800">
  <defs>
    <style>
      .cls-1 {
        fill: #fff;
        stroke-width: 0px;
      }
    </style>
  </defs>
  <path class="cls-1" d="M0,332.9c0,183.6,149.4,332.8,332.8,332.8s161.8-31.8,220.6-83.9l212.1,212.1c3.9,3.9,9,5.9,14.3,5.9s10.3-2,14.3-5.9c7.9-7.9,7.9-20.5,0-28.3l-212.3-212.1c52.1-58.8,83.9-136,83.9-220.6C665.7,149.3,516.3,0,332.8,0S0,149.3,0,332.9ZM625.6,332.9c0,161.3-131.4,292.7-292.7,292.7S40.1,494.3,40.1,332.9,171.5,40.2,332.8,40.2s292.7,131.2,292.7,292.7Z"/>
</svg>